<?xml version="1.0" encoding="utf-8"?>
<!-- Generator: Adobe Illustrator 22.1.0, SVG Export Plug-In . SVG Version: 6.00 Build 0)  -->
<svg version="1.1" id="图层_1" xmlns="http://www.w3.org/2000/svg" xmlns:xlink="http://www.w3.org/1999/xlink" x="0px" y="0px"
	 viewBox="0 0 44 44" style="enable-background:new 0 0 44 44;" xml:space="preserve">
<style type="text/css">
	.st0{clip-path:url(#SVGID_2_);}
	.st1{fill:none;}
	.st2{fill:#FFFFFF;}
</style>
<g>
	<g>
		<defs>
			<rect id="SVGID_1_" y="0" width="44" height="44"/>
		</defs>
		<clipPath id="SVGID_2_">
			<use xlink:href="#SVGID_1_"  style="overflow:visible;"/>
		</clipPath>
		<g class="st0">
			<rect y="0" class="st1" width="44" height="44"/>
			<g transform="translate(-224.739 -609.739)">
				<path class="st2" d="M251.9,641.8c-0.4,0-0.7-0.1-1-0.4l-10.7-8.5c-0.6-0.5-0.7-1.4-0.2-2c0.1-0.1,0.1-0.2,0.2-0.2l10.9-8.7
					c0.7-0.5,1.6-0.5,2.3,0.1c0.6,0.6,0.6,1.7,0,2.3l-0.1,0.1l-8.5,6.8c-0.3,0.3-0.4,0.7-0.1,1l0.1,0.1l8.2,6.5
					c0.7,0.6,0.8,1.6,0.3,2.3C252.9,641.6,252.4,641.8,251.9,641.8L251.9,641.8z"/>
			</g>
		</g>
	</g>
</g>
</svg>
