<?xml version="1.0" encoding="utf-8"?>
<!-- Generator: Adobe Illustrator 22.1.0, SVG Export Plug-In . SVG Version: 6.00 Build 0)  -->
<svg version="1.1" id="图层_1" xmlns="http://www.w3.org/2000/svg" xmlns:xlink="http://www.w3.org/1999/xlink" x="0px" y="0px"
	 viewBox="0 0 50 50" style="enable-background:new 0 0 50 50;" xml:space="preserve">
<style type="text/css">
	.st0{clip-path:url(#SVGID_2_);}
	.st1{fill:#BBBBBB;}
	.st2{fill:none;}
</style>
<g>
	<defs>
		<rect id="SVGID_1_" y="0" width="50" height="50"/>
	</defs>
	<clipPath id="SVGID_2_">
		<use xlink:href="#SVGID_1_"  style="overflow:visible;"/>
	</clipPath>
	<g transform="translate(0)" class="st0">
		<path class="st1" d="M12.5,26.2l13.3,7.5c0.7,0.4,1.6,0.1,1.9-0.5c0.1-0.2,0.2-0.5,0.2-0.7v-3.3l8.1,4.6c0.7,0.4,1.6,0.1,1.9-0.5
			c0.1-0.2,0.2-0.5,0.2-0.7v-15c0-0.8-0.6-1.4-1.4-1.4c-0.2,0-0.5,0.1-0.7,0.2L28,20.8v-3.3c0-0.8-0.6-1.4-1.4-1.4
			c-0.2,0-0.5,0.1-0.7,0.2l-13.3,7.5c-0.7,0.4-0.9,1.3-0.5,1.9C12.1,25.9,12.3,26.1,12.5,26.2z"/>
		<rect y="0" class="st2" width="50" height="50"/>
	</g>
</g>
</svg>
