<?xml version="1.0" encoding="utf-8"?>
<!-- Generator: Adobe Illustrator 22.1.0, SVG Export Plug-In . SVG Version: 6.00 Build 0)  -->
<svg version="1.1" id="图层_1" xmlns="http://www.w3.org/2000/svg" xmlns:xlink="http://www.w3.org/1999/xlink" x="0px" y="0px"
	 viewBox="0 0 70 70" style="enable-background:new 0 0 70 70;" xml:space="preserve">
<style type="text/css">
	.st0{clip-path:url(#SVGID_2_);}
	.st1{fill:none;}
	.st2{fill:#989898;}
	.st3{fill:#666666;}
</style>
<g>
	<defs>
		<rect id="SVGID_1_" y="0" width="70" height="70"/>
	</defs>
	<clipPath id="SVGID_2_">
		<use xlink:href="#SVGID_1_"  style="overflow:visible;"/>
	</clipPath>
	<g class="st0">
		<rect x="0" y="0" class="st1" width="70" height="70"/>
		<g transform="translate(-642.834 -669.443)">
			<path class="st2" d="M669.3,717.8c-0.3-0.3-0.5-0.8-0.5-1.3v-24.1c0-1.1,0.9-1.9,1.9-1.9c0.3,0,0.7,0.1,0.9,0.2l21.6,12.1
				c0.4,0.2,0.7,0.6,0.9,1l10.8,10.8c5.6-15-2-31.7-17-37.3c-15-5.6-31.7,2-37.3,17s2,31.7,17,37.3c5.3,2,11,2.4,16.5,1.1
				L669.3,717.8L669.3,717.8z"/>
			<path class="st3" d="M705,714.6l-10.8-10.8c0.3,0.9,0,1.9-0.9,2.3l-21.6,12.1c-0.8,0.4-1.8,0.3-2.4-0.4l0,0l14.9,14.9
				C693.8,730.6,701.6,723.7,705,714.6z"/>
		</g>
	</g>
</g>
</svg>
