<?xml version="1.0" encoding="utf-8"?>
<!-- Generator: Adobe Illustrator 22.1.0, SVG Export Plug-In . SVG Version: 6.00 Build 0)  -->
<svg version="1.1" id="图层_1" xmlns="http://www.w3.org/2000/svg" xmlns:xlink="http://www.w3.org/1999/xlink" x="0px" y="0px"
	 viewBox="0 0 50 50" style="enable-background:new 0 0 50 50;" xml:space="preserve">
<style type="text/css">
	.st0{clip-path:url(#SVGID_2_);}
	.st1{fill:#BBBBBB;}
	.st2{fill:none;}
</style>
<g>
	<defs>
		<rect id="SVGID_1_" y="0" width="50" height="50"/>
	</defs>
	<clipPath id="SVGID_2_">
		<use xlink:href="#SVGID_1_"  style="overflow:visible;"/>
	</clipPath>
	<g transform="translate(0)" class="st0">
		<path class="st1" d="M37.5,23.8l-13.3-7.5c-0.7-0.4-1.6-0.1-1.9,0.5C22.1,17,22,17.3,22,17.5v3.3l-8.1-4.6
			c-0.7-0.4-1.6-0.1-1.9,0.5c-0.1,0.2-0.2,0.5-0.2,0.7v15c0,0.8,0.6,1.4,1.4,1.4c0.2,0,0.5-0.1,0.7-0.2l8.1-4.6v3.3
			c0,0.8,0.6,1.4,1.4,1.4c0.2,0,0.5-0.1,0.7-0.2l13.3-7.5c0.7-0.4,0.9-1.3,0.5-1.9C37.9,24.1,37.7,23.9,37.5,23.8z"/>
		<rect x="0" y="0" class="st2" width="50" height="50"/>
	</g>
</g>
</svg>
