<?xml version="1.0" encoding="utf-8"?>
<!-- Generator: Adobe Illustrator 22.1.0, SVG Export Plug-In . SVG Version: 6.00 Build 0)  -->
<svg version="1.1" id="图层_1" xmlns="http://www.w3.org/2000/svg" xmlns:xlink="http://www.w3.org/1999/xlink" x="0px" y="0px"
	 viewBox="0 0 50 50" style="enable-background:new 0 0 50 50;" xml:space="preserve">
<style type="text/css">
	.st0{clip-path:url(#SVGID_2_);}
	.st1{fill:#BBBBBB;}
	.st2{fill:none;}
</style>
<g>
	<defs>
		<rect id="SVGID_1_" y="0" width="50" height="50"/>
	</defs>
	<clipPath id="SVGID_2_">
		<use xlink:href="#SVGID_1_"  style="overflow:visible;"/>
	</clipPath>
	<g class="st0">
		<g transform="translate(-213.142 -689.774)">
			<path class="st1" d="M237.2,711h6.6v0.8c0,0.7,0.6,1.3,1.3,1.3c0.2,0,0.4-0.1,0.6-0.2l5-2.8c0.6-0.3,0.8-1.1,0.5-1.7
				c-0.1-0.2-0.3-0.4-0.5-0.5l-5-2.8c-0.6-0.3-1.4-0.1-1.7,0.5c-0.1,0.2-0.2,0.4-0.2,0.6v0.9h-6.5
				C237.6,708.5,237.6,709.8,237.2,711L237.2,711z"/>
			<path class="st1" d="M227,717.3v-1.9c0-0.1,0-0.1,0-0.2c-1.3-0.7-2.4-1.8-3.1-3.1c-0.5,1-0.7,2.2-0.7,3.3v1.9
				c0,1,0.8,1.9,1.9,1.9S227,718.3,227,717.3L227,717.3z"/>
			<path class="st1" d="M251.2,711.9c-1,0-1.9,0.8-1.9,1.9c0,0,0,0,0,0v1.9c0,2.4-2,4.4-4.4,4.4h-12.4v-0.8c0-0.7-0.6-1.3-1.3-1.3
				c-0.2,0-0.4,0.1-0.6,0.2l-5,2.8c-0.6,0.3-0.8,1.1-0.5,1.7c0.1,0.2,0.3,0.4,0.5,0.5l5,2.8c0.6,0.3,1.4,0.1,1.7-0.5
				c0.1-0.2,0.2-0.4,0.2-0.6v-1h12.4c4.5,0,8.2-3.7,8.2-8.2v-1.9C253.1,712.8,252.2,711.9,251.2,711.9z"/>
			<path class="st1" d="M230.3,703.5c-2.9,0-5.3,2.4-5.3,5.3c0,2.9,2.4,5.3,5.3,5.3c2.9,0,5.3-2.4,5.3-5.3c0,0,0,0,0,0
				C235.6,705.8,233.3,703.5,230.3,703.5C230.3,703.5,230.3,703.5,230.3,703.5z M231.2,712.3h-1.5V707c-0.1,0.1-0.2,0.1-0.3,0.2
				c-0.2,0.1-0.5,0.2-0.8,0.3c-0.1,0-0.3,0.1-0.4,0.1v-1.3c0.7-0.2,1.4-0.6,2.1-1h0.9L231.2,712.3z"/>
		</g>
		<rect y="0" class="st2" width="50" height="50"/>
	</g>
</g>
</svg>
