<?xml version="1.0" encoding="utf-8"?>
<!-- Generator: Adobe Illustrator 22.1.0, SVG Export Plug-In . SVG Version: 6.00 Build 0)  -->
<svg version="1.1" id="图层_1" xmlns="http://www.w3.org/2000/svg" xmlns:xlink="http://www.w3.org/1999/xlink" x="0px" y="0px"
	 viewBox="0 0 50 50" style="enable-background:new 0 0 50 50;" xml:space="preserve">
<style type="text/css">
	.st0{clip-path:url(#SVGID_2_);}
	.st1{fill:none;}
	.st2{fill:#BBBBBB;}
</style>
<g>
	<defs>
		<rect id="SVGID_1_" y="0" width="50" height="50"/>
	</defs>
	<clipPath id="SVGID_2_">
		<use xlink:href="#SVGID_1_"  style="overflow:visible;"/>
	</clipPath>
	<g transform="translate(0)" class="st0">
		<rect x="0.1" y="0" class="st1" width="50" height="50"/>
		<g transform="translate(-383.5 -384.5)">
			<path class="st2" d="M404,401.2L404,401.2c1.5,0,2.6,1.2,2.6,2.6v11.3c0,1.5-1.2,2.6-2.6,2.6l0,0c-1.5,0-2.6-1.2-2.6-2.6v-11.3
				C401.4,402.4,402.6,401.2,404,401.2z"/>
			<path class="st2" d="M413.2,401.2L413.2,401.2c1.5,0,2.6,1.2,2.6,2.6v11.3c0,1.5-1.2,2.6-2.6,2.6l0,0c-1.5,0-2.6-1.2-2.6-2.6
				v-11.3C410.5,402.4,411.7,401.2,413.2,401.2z"/>
		</g>
	</g>
</g>
</svg>
