<?xml version="1.0" encoding="utf-8"?>
<!-- Generator: Adobe Illustrator 22.1.0, SVG Export Plug-In . SVG Version: 6.00 Build 0)  -->
<svg version="1.1" id="图层_1" xmlns="http://www.w3.org/2000/svg" xmlns:xlink="http://www.w3.org/1999/xlink" x="0px" y="0px"
	 viewBox="0 0 70 70" style="enable-background:new 0 0 70 70;" xml:space="preserve">
<style type="text/css">
	.st0{clip-path:url(#SVGID_2_);}
	.st1{fill:#989898;}
	.st2{fill:#F2F2F2;}
	.st3{fill:#666666;}
	.st4{fill:#FFFFFF;}
	.st5{fill:none;}
</style>
<g>
	<defs>
		<rect id="SVGID_1_" y="0" width="70" height="70"/>
	</defs>
	<clipPath id="SVGID_2_">
		<use xlink:href="#SVGID_1_"  style="overflow:visible;"/>
	</clipPath>
	<g transform="translate(0)" class="st0">
		<g transform="translate(5.386 5.386)">
			<path class="st1" d="M19.7,39.1V20.2c0-1.1,0.9-1.9,1.9-1.9c0,0,0,0,0,0H25c0.5,0,0.9,0.2,1.3,0.5v0l0,0c0,0,0.1,0.1,0.1,0.1
				l5.8,5.8v-4.5c0-1.1,0.9-1.9,1.9-1.9c0,0,0,0,0,0h3.4c0.5,0,0.9,0.2,1.3,0.5v0l0,0c0,0,0.1,0.1,0.1,0.1l18.5,18.5
				C61.8,22,52.8,6,37.4,1.7C22-2.6,6,6.4,1.7,21.8c-4.3,15.4,4.7,31.4,20.1,35.7c5.1,1.4,10.6,1.4,15.7,0L20.8,40.8
				C20.1,40.4,19.7,39.8,19.7,39.1z"/>
			<path class="st2" d="M38.9,18.8L38.9,18.8C38.9,18.8,38.9,18.8,38.9,18.8L38.9,18.8z"/>
			<path class="st2" d="M26.3,18.8L26.3,18.8C26.3,18.8,26.3,18.8,26.3,18.8L26.3,18.8z"/>
			<path class="st3" d="M39,18.9c0.3,0.4,0.5,0.8,0.5,1.3V39c0,1.1-0.9,1.9-1.9,1.9c0,0,0,0,0,0h-3.4c-1.1,0-1.9-0.9-1.9-1.9V24.7
				l-5.8-5.8c0.3,0.4,0.5,0.8,0.5,1.3V39c0,1.1-0.9,1.9-1.9,1.9c0,0,0,0,0,0h-3.4c-0.3,0-0.6-0.1-0.9-0.2l16.8,16.8
				c9.7-2.8,17.3-10.4,20-20.1L39,18.9z"/>
			<path class="st4" d="M26.4,18.8L26.4,18.8C26.4,18.9,26.4,18.8,26.4,18.8z"/>
			<path class="st4" d="M38.9,18.8L38.9,18.8C39,18.9,38.9,18.8,38.9,18.8z"/>
		</g>
		<rect y="0" class="st5" width="70" height="70"/>
	</g>
</g>
</svg>
