<?xml version="1.0" encoding="utf-8"?>
<!-- Generator: Adobe Illustrator 22.1.0, SVG Export Plug-In . SVG Version: 6.00 Build 0)  -->
<svg version="1.1" id="图层_1" xmlns="http://www.w3.org/2000/svg" xmlns:xlink="http://www.w3.org/1999/xlink" x="0px" y="0px"
	 viewBox="0 0 50 50" style="enable-background:new 0 0 50 50;" xml:space="preserve">
<style type="text/css">
	.st0{clip-path:url(#SVGID_2_);}
	.st1{fill:none;}
	.st2{fill:#BBBBBB;}
</style>
<g>
	<g>
		<defs>
			<rect id="SVGID_1_" y="0" width="50" height="50"/>
		</defs>
		<clipPath id="SVGID_2_">
			<use xlink:href="#SVGID_1_"  style="overflow:visible;"/>
		</clipPath>
		<g transform="translate(0)" class="st0">
			<rect y="0" class="st1" width="50" height="50"/>
			<g transform="translate(-246.03 -689.774)">
				<path class="st2" d="M259.9,716.5v-1.9c0-2.4,2-4.4,4.4-4.4h12.4v0.8c0,0.7,0.6,1.3,1.3,1.3c0.2,0,0.4-0.1,0.6-0.2l5-2.8
					c0.6-0.3,0.8-1.1,0.5-1.7c-0.1-0.2-0.3-0.4-0.5-0.5l-5-2.8c-0.6-0.3-1.4-0.1-1.7,0.5c-0.1,0.2-0.2,0.4-0.2,0.6v0.9h-12.4
					c-4.5,0-8.2,3.7-8.2,8.2v1.9c0,1,0.9,1.9,1.9,1.8C259,718.3,259.8,717.5,259.9,716.5L259.9,716.5z"/>
				<path class="st2" d="M284.1,711.2c-1,0-1.9,0.8-1.9,1.9l0,0v1.9c0,2.4-2,4.4-4.4,4.4h-12.4v-0.8c0-0.7-0.6-1.3-1.3-1.3
					c-0.2,0-0.4,0.1-0.6,0.2l-5,2.8c-0.6,0.3-0.8,1.1-0.5,1.7c0.1,0.2,0.3,0.4,0.5,0.5l5,2.8c0.6,0.3,1.4,0.1,1.7-0.5
					c0.1-0.2,0.2-0.4,0.2-0.6v-1h12.4c4.5,0,8.2-3.7,8.2-8.2v-2C286,712,285.1,711.2,284.1,711.2z"/>
			</g>
		</g>
	</g>
</g>
</svg>
